#!OML:ASF X:\für Bonn\!DataBase\2005_08_12_Daniel\c3d\Daniel.ASF
:FULLY-SPECIFIED
:DEGREES
217
root 2.55445 17.6508 17.5834 -4.22188 19.6246 0.750901
lowerback 4.88327 3.51982 2.2616
upperback 1.0986 4.7583 -6.82662
thorax -0.821137 2.42955 -8.67696
lowerneck 2.82408 -7.47827 -4.44593
upperneck 9.65476 -10.3617 4.59962
head 3.16243 -5.17427 2.03831
rclavicle 7.02207e-014 -1.74931e-014
rhumerus 41.1902 -12.2311 -55.8688
rradius 35.7241
rwrist 1.2779
rhand -9.39527 12.2673
rfingers 7.12502
rthumb 16.5659 -17.0456
lclavicle 7.02207e-014 -1.74931e-014
lhumerus -32.8862 36.0269 64.3577
lradius 16.3395
lwrist -40.3534
lhand -10.1974 -6.88826
lfingers 7.12502
lthumb 15.7935 22.4875
rfemur 11.6209 16.1897 22.9049
rtibia 12.5423
rfoot -30.4216 -31.601
rtoes -8.9994
lfemur -1.17746 -19.7642 -19.4218
ltibia 26.9263
lfoot -20.8018 5.48159
ltoes -14.8143
218
root 2.56186 17.6504 17.581 -4.24827 19.5241 0.721515
lowerback 4.8343 3.46703 2.27593
upperback 1.12151 4.68951 -6.80323
thorax -0.782283 2.39617 -8.65252
lowerneck 2.73494 -7.4403 -4.37533
upperneck 9.68761 -10.3036 4.5278
head 3.17701 -5.14347 2.00035
rclavicle -1.72446e-014 -4.29375e-014
rhumerus 40.1834 -12.047 -55.7043
rradius 37.6814
rwrist -0.00996418
rhand -9.31808 12.2712
rfingers 7.12502
rthumb 16.6402 -17.0355
lclavicle -1.72446e-014 -4.29375e-014
lhumerus -32.9769 36.1948 64.2128
lradius 16.2731
lwrist -40.6057
lhand -10.1626 -6.9516
lfingers 7.12502
lthumb 15.827 22.4215
rfemur 11.6512 16.2302 22.9062
rtibia 12.5008
rfoot -30.3602 -31.5533
rtoes -9.00835
lfemur -1.13923 -19.7371 -19.437
ltibia 26.9354
lfoot -20.8425 5.56193
ltoes -14.8049
219
root 2.5698 17.6507 17.5794 -4.24807 19.4135 0.721516
lowerback 4.74437 3.41192 2.23851
upperback 1.15773 4.61607 -6.76855
thorax -0.712649 2.36144 -8.58188
lowerneck 2.61878 -7.3915 -4.3554
upperneck 9.71863 -10.2324 4.48115
head 3.20043 -5.10699 1.97887
rclavicle -7.51406e-014 2.38542e-014
rhumerus 39.2113 -11.8423 -55.5217
rradius 39.6107
rwrist -1.20936
rhand -9.31654 12.321
rfingers 7.12502
rthumb 16.6417 -16.9856
lclavicle -7.51406e-014 2.38542e-014
lhumerus -33.1461 36.6508 63.9693
lradius 16.2172
lwrist -41.089
lhand -10.1963 -7.06696
lfingers 7.12502
lthumb 15.7946 22.3087
rfemur 11.639 16.185 22.8327
rtibia 12.4717
rfoot -30.2457 -31.4223
rtoes -9.02591
lfemur -1.09917 -19.793 -19.4911
ltibia 26.9348
lfoot -20.879 5.69354
ltoes -14.6635
220
root 2.57775 17.6509 17.5776 -4.26259 19.2828 0.709576
lowerback 4.68106 3.35484 2.20916
upperback 1.1802 4.53934 -6.73041
thorax -0.672184 2.3237 -8.51502
lowerneck 2.53634 -7.34186 -4.31017
upperneck 9.72952 -10.1615 4.44712
head 3.21004 -5.07008 1.95887
rclavicle -7.57867e-014 1.90833e-014
rhumerus 38.2615 -11.6703 -55.4784
rradius 41.517
rwrist -2.31316
rhand -9.32921 12.4601
rfingers 7.12502
rthumb 16.6295 -16.8475
lclavicle -7.57867e-014 1.90833e-014
lhumerus -33.2086 36.6566 63.9312
lradius 16.1675
lwrist -41.1025
lhand -10.2124 -7.05863
lfingers 7.12502
lthumb 15.7791 22.3182
rfemur 11.6481 16.2221 22.8082
rtibia 12.4406
rfoot -30.1148 -31.3892
rtoes -9.15279
lfemur -1.0549 -19.7292 -19.5231
ltibia 26.9367
lfoot -20.9001 5.77098
ltoes -14.6608
221
root 2.58598 17.651 17.5757 -4.25656 19.1403 0.70814
lowerback 4.60647 3.3108 2.18548
upperback 1.18672 4.47986 -6.70095
thorax -0.637825 2.29418 -8.46144
lowerneck 2.50492 -7.30293 -4.23982
upperneck 9.7297 -10.1026 4.37523
head 3.20307 -5.04003 1.9238
rclavicle -2.48481e-014 -1.43125e-014
rhumerus 37.2106 -11.4548 -55.3578
rradius 43.4798
rwrist -3.52893
rhand -9.45169 12.6976
rfingers 7.12502
rthumb 16.5116 -16.6198
lclavicle -2.48481e-014 -1.43125e-014
lhumerus -33.353 36.8656 63.757
lradius 16.1076
lwrist -41.3483
lhand -10.2037 -7.07693
lfingers 7.12502
lthumb 15.7875 22.2993
rfemur 11.6121 16.2133 22.7378
rtibia 12.4345
rfoot -29.9987 -31.2616
rtoes -9.26052
lfemur -1.01281 -19.7592 -19.5766
ltibia 26.9267
lfoot -20.9315 5.92377
ltoes -14.56
222
root 2.59274 17.6515 17.5729 -4.25793 19.0037 0.707688
lowerback 4.54266 3.26275 2.16451
upperback 1.2201 4.41639 -6.68472
thorax -0.580767 2.26422 -8.42345
lowerneck 2.34621 -7.26965 -4.1513
upperneck 9.80203 -10.0513 4.31011
head 3.24416 -5.01073 1.88173
rclavicle 9.59136e-015 7.63333e-014
rhumerus 36.1839 -11.3316 -55.3327
rradius 45.4778
rwrist -4.60892
rhand -9.53447 12.8793
rfingers 7.12502
rthumb 16.4319 -16.4447
lclavicle 9.59136e-015 7.63333e-014
lhumerus -33.4298 37.076 63.5917
lradius 16.0324
lwrist -41.5666
lhand -10.1899 -7.12692
lfingers 7.12502
lthumb 15.8007 22.2482
rfemur 11.5939 16.2974 22.7103
rtibia 12.43
rfoot -29.9186 -31.2394
rtoes -9.32927
lfemur -0.979242 -19.7024 -19.6046
ltibia 26.9172
lfoot -20.9522 5.98318
ltoes -14.4602
223
root 2.59886 17.6519 17.5706 -4.2612 18.8761 0.706778
lowerback 4.47125 3.20592 2.11004
upperback 1.24999 4.33941 -6.64788
thorax -0.529471 2.22672 -8.34301
lowerneck 2.28759 -7.23232 -4.07784
upperneck 9.78352 -9.99399 4.24289
head 3.23611 -4.98108 1.84693
rclavicle -4.12478e-015 1.59028e-014
rhumerus 35.0759 -11.1169 -55.2365
rradius 47.5702
rwrist -5.86615
rhand -9.67613 13.2069
rfingers 7.12502
rthumb 16.2955 -16.1283
lclavicle -4.12478e-015 1.59028e-014
lhumerus -33.5078 37.1229 63.5359
lradius 15.999
lwrist -41.6418
lhand -10.2141 -7.12771
lfingers 7.12502
lthumb 15.7775 22.2493
rfemur 11.5741 16.342 22.673
rtibia 12.432
rfoot -29.8534 -31.1711
rtoes -9.36418
lfemur -0.948035 -19.6144 -19.6291
ltibia 26.9049
lfoot -20.9584 6.03133
ltoes -14.4583
